<?xml version="1.0" encoding="utf-8"?>
<svg version="1.1" xmlns:xlink="http://www.w3.org/1999/xlink" width="36px" height="36px" xmlns="http://www.w3.org/2000/svg">
  <g transform="matrix(1 0 0 1 -253 -219 )">
    <path d="M 271 219  C 281.08 219  289 226.92  289 237  C 289 247.08  281.08 255  271 255  C 260.92 255  253 247.08  253 237  C 253 226.92  260.92 219  271 219  Z " fill-rule="nonzero" fill="#ffffff" stroke="none" />
    <path d="M 271 219.5  C 280.8 219.5  288.5 227.2  288.5 237  C 288.5 246.8  280.8 254.5  271 254.5  C 261.2 254.5  253.5 246.8  253.5 237  C 253.5 227.2  261.2 219.5  271 219.5  Z " stroke-width="1" stroke="#797979" fill="none" />
  </g>
</svg>