<?xml version="1.0" encoding="utf-8"?>
<svg version="1.1" xmlns:xlink="http://www.w3.org/1999/xlink" width="121px" height="151px" xmlns="http://www.w3.org/2000/svg">
  <g transform="matrix(1 0 0 1 -775 -1965 )">
    <path d="M 835.5 1967.5  C 867.98 1967.5  893.5 1999.62  893.5 2040.5  C 893.5 2081.38  867.98 2113.5  835.5 2113.5  C 803.02 2113.5  777.5 2081.38  777.5 2040.5  C 777.5 1999.62  803.02 1967.5  835.5 1967.5  Z " fill-rule="nonzero" fill="#ffffff" stroke="none" />
    <path d="M 835.5 1966.5  C 868.54 1966.5  894.5 1999.06  894.5 2040.5  C 894.5 2081.94  868.54 2114.5  835.5 2114.5  C 802.46 2114.5  776.5 2081.94  776.5 2040.5  C 776.5 1999.06  802.46 1966.5  835.5 1966.5  Z " stroke-width="3" stroke-dasharray="27,12" stroke="#d9001b" fill="none" stroke-dashoffset="0.5" />
  </g>
</svg>