<?xml version="1.0" encoding="utf-8"?>
<svg version="1.1" xmlns:xlink="http://www.w3.org/1999/xlink" width="32px" height="32px" xmlns="http://www.w3.org/2000/svg">
  <g transform="matrix(1 0 0 1 -268 -818 )">
    <path d="M 284 818  C 292.96 818  300 825.04  300 834  C 300 842.96  292.96 850  284 850  C 275.04 850  268 842.96  268 834  C 268 825.04  275.04 818  284 818  Z " fill-rule="nonzero" fill="#ffffff" stroke="none" />
    <path d="M 284 818.5  C 292.68 818.5  299.5 825.32  299.5 834  C 299.5 842.68  292.68 849.5  284 849.5  C 275.32 849.5  268.5 842.68  268.5 834  C 268.5 825.32  275.32 818.5  284 818.5  Z " stroke-width="1" stroke="#797979" fill="none" />
  </g>
</svg>